/* XPM */
static const char *exit_xpm[] = {
/* columns rows colors chars-per-pixel */
"16 16 65 1",
"  c opaque",
". c #9f1005",
"X c #a01304",
"o c #a11708",
"O c #a21906",
"+ c #a41b0c",
"@ c #a51f10",
"# c #a62211",
"$ c #a72718",
"% c #a82b19",
"& c #b23e18",
"* c #aa2e20",
"= c #ac3322",
"- c #ae3829",
"; c #b03f2f",
": c #b14030",
"> c #b8522d",
", c #ba5a34",
"< c #bd6038",
"1 c #c16c45",
"2 c #c36c48",
"3 c #c4724c",
"4 c #c57750",
"5 c #c67b55",
"6 c #c87754",
"7 c #c87c55",
"8 c #c87e58",
"9 c #c9825a",
"0 c #ca8a5e",
"q c #c98560",
"w c #cb8962",
"e c #cf8b6a",
"r c #cf936a",
"t c #d0956a",
"y c #d49274",
"u c #d29b74",
"i c #d59e7c",
"p c #d89a7c",
"a c #d5a576",
"s c #d5a07d",
"d c #d6a483",
"f c #d9a185",
"g c #dca288",
"h c #d9a88c",
"j c #dcac90",
"k c #dcb392",
"l c #e2ab93",
"z c #e2b096",
"x c #e2b49b",
"c c #e5c8ae",
"v c #e9c0a9",
"b c #edc6b2",
"n c #f1cebb",
"m c #f3d0bf",
"M c #f7d4c5",
"N c #f8d7c8",
"B c #f9ded0",
"V c #fce4d5",
"C c #fde7da",
"Z c #ffefe5",
"A c #fff0e6",
"S c #fff3e9",
"D c #fffaf3",
"F c #fffffe",
"G c None",
/* pixels */
"GoX;--=-==%*-X+G",
"o-k377888800wa$+",
"Xk&>,,,yy11336uX",
";8>,2MFFFFm957r%",
"-6,2FFNglZFDw9r#",
"-7,MFl1nb4xFn0r#",
"-86FN13ZS55SFwr#",
"=8yFp23ZS59bFsu@",
"=8yFi33SS99bFju+",
"*09FM46ZS9wSFus.",
"=01ZFf5VnwvFBss+",
"%03eFFBxxVFFdddO",
"=w37wBFFFFCdihdO",
".a680wrlxuidhc8.",
"+$utrrruuisdk6.+",
"G+.%###++OOO..#G"
};
